<svg width="81" height="89" viewBox="0 0 81 89" fill="none" xmlns="http://www.w3.org/2000/svg">
<path fill-rule="evenodd" clip-rule="evenodd" d="M34.1357 2.45996C36.0713 1.34493 38.266 0.757965 40.5 0.757965C42.734 0.757965 44.9287 1.34493 46.8643 2.45996C46.8679 2.46202 46.8714 2.46408 46.875 2.46614L73.9807 17.9551L74 17.9661C75.9363 19.0841 77.5446 20.6916 78.6636 22.6273C79.7825 24.563 80.3727 26.759 80.375 28.9949V60.0051C80.3727 62.241 79.7825 64.437 78.6636 66.3727C77.5446 68.3085 75.9363 69.916 74 71.0339L73.9807 71.045L46.875 86.5339C46.8711 86.5361 46.8672 86.5384 46.8633 86.5406C44.9279 87.6553 42.7336 88.2421 40.5 88.2421C38.2664 88.2421 36.0721 87.6553 34.1367 86.5406C34.1328 86.5384 34.1289 86.5361 34.125 86.5339L7.0193 71.045L7 71.0339C5.06367 69.916 3.45537 68.3085 2.33644 66.3727C1.21751 64.437 0.627293 62.241 0.625 60.0051V28.9949C0.627293 26.759 1.21751 24.5631 2.33644 22.6273C3.45538 20.6915 5.06368 19.0841 7 17.9661L7.0193 17.9551L34.1357 2.45996ZM40.5 10.758C40.0173 10.758 39.543 10.885 39.125 11.1264L39.1057 11.1375L12 26.6264C11.9976 26.6278 11.9952 26.6292 11.9928 26.6306C11.5784 26.8715 11.2341 27.2166 10.9941 27.6317C10.7531 28.0487 10.6258 28.5216 10.625 29.0031V59.9969C10.6258 60.4785 10.7531 60.9514 10.9941 61.3683C11.234 61.7833 11.5783 62.1284 11.9926 62.3694C11.9951 62.3708 11.9975 62.3722 12 62.3736L39.1057 77.8625L39.125 77.8736C39.5431 78.115 40.0173 78.2421 40.5 78.2421C40.9827 78.2421 41.4569 78.115 41.875 77.8736L41.8943 77.8625L69 62.3736C69.0025 62.3722 69.005 62.3708 69.0074 62.3693C69.4217 62.1284 69.766 61.7833 70.0059 61.3683C70.2472 60.9508 70.3745 60.4771 70.375 59.9949V29.0051C70.3745 28.5229 70.2472 28.0493 70.0059 27.6317C69.7659 27.2166 69.4216 26.8715 69.0072 26.6306C69.0048 26.6292 69.0024 26.6278 69 26.6264L41.8943 11.1375L41.875 11.1264C41.4569 10.885 40.9827 10.758 40.5 10.758Z" fill="white"/>
<path fill-rule="evenodd" clip-rule="evenodd" d="M38.5 45.7361L6.78201 29.8771L8.57087 26.2994L40.4806 42.2542L71.0307 26.3151L72.881 29.8614L42.5 45.7124V80.0588H38.5V45.7361Z" fill="white" fill-opacity="0.75"/>
</svg>
