<svg width="599" height="133" viewBox="0 0 599 133" fill="none" xmlns="http://www.w3.org/2000/svg">
<path d="M131.562 11.3506C138.644 11.3506 144.856 12.7423 150.199 15.5259C155.607 18.3094 159.759 22.2905 162.656 27.4691C165.618 32.583 167.098 38.5385 167.098 45.3354C167.098 52.1324 165.618 58.0879 162.656 63.2018C159.759 68.2509 155.607 72.1673 150.199 74.9508C144.856 77.7343 138.644 79.1261 131.562 79.1261H108V11.3506H131.562ZM131.079 67.5712C138.161 67.5712 143.633 65.6293 147.495 61.7453C151.358 57.8613 153.289 52.3913 153.289 45.3354C153.289 38.2795 151.358 32.7772 147.495 28.8285C143.633 24.815 138.161 22.8083 131.079 22.8083H121.519V67.5712H131.079Z" fill="white"/>
<path d="M182.143 18.9243C179.761 18.9243 177.765 18.1799 176.156 16.691C174.611 15.1375 173.838 13.2278 173.838 10.9622C173.838 8.69651 174.611 6.81925 176.156 5.33039C177.765 3.7768 179.761 3 182.143 3C184.525 3 186.488 3.7768 188.034 5.33039C189.643 6.81925 190.448 8.69651 190.448 10.9622C190.448 13.2278 189.643 15.1375 188.034 16.691C186.488 18.1799 184.525 18.9243 182.143 18.9243ZM188.806 25.3329V79.1261H175.287V25.3329H188.806Z" fill="white"/>
<path d="M220.704 80C216.326 80 212.399 79.2232 208.923 77.6696C205.446 76.0513 202.678 73.8827 200.618 71.1639C198.622 68.4451 197.528 65.4351 197.335 62.1337H210.951C211.208 64.2051 212.206 65.9206 213.944 67.2799C215.747 68.6393 217.968 69.319 220.607 69.319C223.182 69.319 225.178 68.8012 226.594 67.7654C228.075 66.7297 228.815 65.4027 228.815 63.7844C228.815 62.0366 227.914 60.7419 226.111 59.9004C224.373 58.9941 221.573 58.0231 217.71 56.9874C213.719 56.0164 210.436 55.013 207.86 53.9773C205.35 52.9416 203.161 51.3556 201.294 49.2194C199.491 47.0832 198.59 44.2026 198.59 40.5776C198.59 37.5998 199.427 34.881 201.101 32.4212C202.839 29.9613 205.285 28.0193 208.44 26.5952C211.659 25.1711 215.425 24.459 219.738 24.459C226.111 24.459 231.197 26.0773 234.996 29.314C238.794 32.4859 240.886 36.7907 241.272 42.2282H228.332C228.139 40.0921 227.238 38.409 225.629 37.1791C224.084 35.8844 221.991 35.2371 219.352 35.2371C216.905 35.2371 215.006 35.6902 213.654 36.5965C212.367 37.5027 211.723 38.765 211.723 40.3834C211.723 42.1959 212.624 43.5876 214.427 44.5586C216.23 45.4649 219.03 46.4035 222.828 47.3745C226.691 48.3455 229.878 49.3489 232.388 50.3846C234.899 51.4203 237.056 53.0387 238.858 55.2396C240.725 57.3758 241.691 60.224 241.755 63.7844C241.755 66.8915 240.886 69.6751 239.148 72.1349C237.474 74.5948 235.028 76.5368 231.809 77.9609C228.654 79.3203 224.953 80 220.704 80Z" fill="white"/>
<path d="M266.662 36.4994V62.5221C266.662 64.3346 267.08 65.6616 267.917 66.5031C268.818 67.2799 270.299 67.6683 272.359 67.6683H278.636V79.1261H270.138C258.743 79.1261 253.046 73.5591 253.046 62.425V36.4994H246.672V25.3329H253.046V12.0303H266.662V25.3329H278.636V36.4994H266.662Z" fill="white"/>
<path d="M299.947 33.6835C301.686 30.8352 303.939 28.6019 306.707 26.9836C309.54 25.3653 312.758 24.5561 316.364 24.5561V38.8298H312.791C308.542 38.8298 305.323 39.8331 303.134 41.8398C301.01 43.8466 299.947 47.3422 299.947 52.3266V79.1261H286.428V25.3329H299.947V33.6835Z" fill="white"/>
<path d="M330.394 18.9243C328.012 18.9243 326.017 18.1799 324.407 16.691C322.862 15.1375 322.09 13.2278 322.09 10.9622C322.09 8.69651 322.862 6.81925 324.407 5.33039C326.017 3.7768 328.012 3 330.394 3C332.776 3 334.74 3.7768 336.285 5.33039C337.894 6.81925 338.699 8.69651 338.699 10.9622C338.699 13.2278 337.894 15.1375 336.285 16.691C334.74 18.1799 332.776 18.9243 330.394 18.9243ZM337.057 25.3329V79.1261H323.538V25.3329H337.057Z" fill="white"/>
<path d="M362.002 33.198C363.741 30.6087 366.122 28.5048 369.148 26.8865C372.238 25.2682 375.747 24.459 379.674 24.459C384.245 24.459 388.365 25.5918 392.034 27.8575C395.768 30.1232 398.697 33.3598 400.822 37.5675C403.011 41.7104 404.105 46.533 404.105 52.0353C404.105 57.5376 403.011 62.425 400.822 66.6973C398.697 70.905 395.768 74.174 392.034 76.5044C388.365 78.8348 384.245 80 379.674 80C375.682 80 372.174 79.2232 369.148 77.6696C366.187 76.0513 363.805 73.9798 362.002 71.4552V79.1261H348.483V7.27239H362.002V33.198ZM390.296 52.0353C390.296 48.7987 389.62 46.0151 388.268 43.6847C386.981 41.2896 385.243 39.4771 383.054 38.2472C380.929 37.0172 378.612 36.4023 376.101 36.4023C373.655 36.4023 371.337 37.0496 369.148 38.3443C367.024 39.5742 365.286 41.3867 363.934 43.7818C362.646 46.177 362.002 48.9929 362.002 52.2295C362.002 55.4662 362.646 58.282 363.934 60.6772C365.286 63.0723 367.024 64.9172 369.148 66.2119C371.337 67.4418 373.655 68.0567 376.101 68.0567C378.612 68.0567 380.929 67.4094 383.054 66.1148C385.243 64.8201 386.981 62.9752 388.268 60.5801C389.62 58.185 390.296 55.3367 390.296 52.0353Z" fill="white"/>
<path d="M462.502 25.3329V79.1261H448.886V72.3291C447.148 74.6595 444.862 76.5044 442.03 77.8638C439.262 79.1585 436.236 79.8058 432.953 79.8058C428.768 79.8058 425.066 78.9319 421.848 77.1841C418.629 75.3716 416.086 72.7499 414.219 69.319C412.416 65.8235 411.515 61.6805 411.515 56.8903V25.3329H425.034V54.9483C425.034 59.2207 426.096 62.5221 428.221 64.8525C430.345 67.1181 433.242 68.2509 436.912 68.2509C440.646 68.2509 443.575 67.1181 445.699 64.8525C447.824 62.5221 448.886 59.2207 448.886 54.9483V25.3329H462.502Z" fill="white"/>
<path d="M489.65 36.4994V62.5221C489.65 64.3346 490.068 65.6616 490.905 66.5031C491.806 67.2799 493.287 67.6683 495.347 67.6683H501.624V79.1261H493.126C481.731 79.1261 476.034 73.5591 476.034 62.425V36.4994H469.661V25.3329H476.034V12.0303H489.65V25.3329H501.624V36.4994H489.65Z" fill="white"/>
<path d="M533.171 80C528.021 80 523.386 78.8672 519.266 76.6015C515.146 74.2711 511.895 71.0021 509.513 66.7944C507.195 62.5868 506.036 57.7318 506.036 52.2295C506.036 46.7272 507.227 41.8722 509.609 37.6646C512.056 33.4569 515.371 30.2203 519.556 27.9546C523.74 25.6242 528.408 24.459 533.558 24.459C538.708 24.459 543.375 25.6242 547.56 27.9546C551.744 30.2203 555.028 33.4569 557.409 37.6646C559.856 41.8722 561.079 46.7272 561.079 52.2295C561.079 57.7318 559.824 62.5868 557.313 66.7944C554.867 71.0021 551.519 74.2711 547.27 76.6015C543.086 78.8672 538.386 80 533.171 80ZM533.171 68.1538C535.618 68.1538 537.903 67.5712 540.028 66.4061C542.216 65.1761 543.955 63.3636 545.242 60.9685C546.53 58.5733 547.174 55.6604 547.174 52.2295C547.174 47.1156 545.822 43.1992 543.118 40.4805C540.478 37.6969 537.227 36.3052 533.365 36.3052C529.502 36.3052 526.251 37.6969 523.611 40.4805C521.036 43.1992 519.749 47.1156 519.749 52.2295C519.749 57.3434 521.004 61.2921 523.515 64.0757C526.09 66.7944 529.309 68.1538 533.171 68.1538Z" fill="white"/>
<path d="M582.584 33.6835C584.322 30.8352 586.575 28.6019 589.343 26.9836C592.176 25.3653 595.395 24.5561 599 24.5561V38.8298H595.427C591.178 38.8298 587.959 39.8331 585.77 41.8398C583.646 43.8466 582.584 47.3422 582.584 52.3266V79.1261H569.065V25.3329H582.584V33.6835Z" fill="white"/>
<path d="M139.573 102.393V132.738H134.656V111.955L125.512 132.738H122.104L112.917 111.955V132.738H108V102.393H113.305L123.83 126.189L134.311 102.393H139.573Z" fill="white"/>
<path d="M172.735 126.538H160.184L158.027 132.738H152.894L163.634 102.349H169.328L180.068 132.738H174.892L172.735 126.538ZM171.355 122.477L166.481 108.375L161.564 122.477H171.355Z" fill="white"/>
<path d="M217.993 132.738H213.076L198.282 110.077V132.738H193.364V102.349H198.282L213.076 124.966V102.349H217.993V132.738Z" fill="white"/>
<path d="M251.15 126.538H238.598L236.441 132.738H231.309L242.049 102.349H247.742L258.482 132.738H253.306L251.15 126.538ZM249.769 122.477L244.895 108.375L239.978 122.477H249.769Z" fill="white"/>
<path d="M293.475 111.125C292.698 109.612 291.62 108.477 290.24 107.72C288.859 106.934 287.263 106.541 285.452 106.541C283.468 106.541 281.699 106.992 280.146 107.894C278.594 108.797 277.372 110.077 276.48 111.737C275.617 113.396 275.186 115.317 275.186 117.5C275.186 119.683 275.617 121.619 276.48 123.307C277.372 124.966 278.594 126.247 280.146 127.149C281.699 128.052 283.468 128.503 285.452 128.503C288.126 128.503 290.297 127.746 291.965 126.232C293.633 124.719 294.653 122.667 295.027 120.076H283.77V116.103H300.29V119.989C299.973 122.346 299.139 124.515 297.788 126.494C296.465 128.474 294.725 130.06 292.569 131.254C290.441 132.418 288.069 133 285.452 133C282.634 133 280.06 132.345 277.731 131.035C275.402 129.696 273.547 127.848 272.167 125.49C270.815 123.132 270.14 120.469 270.14 117.5C270.14 114.531 270.815 111.868 272.167 109.51C273.547 107.152 275.402 105.318 277.731 104.008C280.089 102.669 282.663 102 285.452 102C288.644 102 291.476 102.8 293.949 104.401C296.451 105.973 298.262 108.215 299.384 111.125H293.475Z" fill="white"/>
<path d="M318.683 106.41V115.317H329.035V119.377H318.683V128.677H330.329V132.738H313.766V102.349H330.329V106.41H318.683Z" fill="white"/>
<path d="M376.585 102.393V132.738H371.668V111.955L362.524 132.738H359.116L349.929 111.955V132.738H345.012V102.393H350.317L360.842 126.189L371.323 102.393H376.585Z" fill="white"/>
<path d="M396.592 106.41V115.317H406.944V119.377H396.592V128.677H408.238V132.738H391.675V102.349H408.238V106.41H396.592Z" fill="white"/>
<path d="M447.55 132.738H442.632L427.838 110.077V132.738H422.921V102.349H427.838L442.632 124.966V102.349H447.55V132.738Z" fill="white"/>
<path d="M482 102.393V106.454H474.02V132.738H469.103V106.454H461.081V102.393H482Z" fill="white"/>
<path fill-rule="evenodd" clip-rule="evenodd" d="M34.1357 2.45996C36.0713 1.34493 38.266 0.757965 40.5 0.757965C42.734 0.757965 44.9287 1.34493 46.8643 2.45996C46.8679 2.46202 46.8714 2.46408 46.875 2.46614L73.9807 17.9551L74 17.9661C75.9363 19.0841 77.5446 20.6916 78.6636 22.6273C79.7825 24.563 80.3727 26.759 80.375 28.9949V60.0051C80.3727 62.241 79.7825 64.437 78.6636 66.3727C77.5446 68.3085 75.9363 69.916 74 71.0339L73.9807 71.045L46.875 86.5339C46.8711 86.5361 46.8672 86.5384 46.8633 86.5406C44.9279 87.6553 42.7336 88.2421 40.5 88.2421C38.2664 88.2421 36.0721 87.6553 34.1367 86.5406C34.1328 86.5384 34.1289 86.5361 34.125 86.5339L7.0193 71.045L7 71.0339C5.06367 69.916 3.45537 68.3085 2.33644 66.3727C1.21751 64.437 0.627293 62.241 0.625 60.0051V28.9949C0.627293 26.759 1.21751 24.5631 2.33644 22.6273C3.45538 20.6915 5.06368 19.0841 7 17.9661L7.0193 17.9551L34.1357 2.45996ZM40.5 10.758C40.0173 10.758 39.543 10.885 39.125 11.1264L39.1057 11.1375L12 26.6264C11.9976 26.6278 11.9952 26.6292 11.9928 26.6306C11.5784 26.8715 11.2341 27.2166 10.9941 27.6317C10.7531 28.0487 10.6258 28.5216 10.625 29.0031V59.9969C10.6258 60.4785 10.7531 60.9514 10.9941 61.3683C11.234 61.7833 11.5783 62.1284 11.9926 62.3694C11.9951 62.3708 11.9975 62.3722 12 62.3736L39.1057 77.8625L39.125 77.8736C39.5431 78.115 40.0173 78.2421 40.5 78.2421C40.9827 78.2421 41.4569 78.115 41.875 77.8736L41.8943 77.8625L69 62.3736C69.0025 62.3722 69.005 62.3708 69.0074 62.3693C69.4217 62.1284 69.766 61.7833 70.0059 61.3683C70.2472 60.9508 70.3745 60.4771 70.375 59.9949V29.0051C70.3745 28.5229 70.2472 28.0493 70.0059 27.6317C69.7659 27.2166 69.4216 26.8715 69.0072 26.6306C69.0048 26.6292 69.0024 26.6278 69 26.6264L41.8943 11.1375L41.875 11.1264C41.4569 10.885 40.9827 10.758 40.5 10.758Z" fill="white"/>
<path fill-rule="evenodd" clip-rule="evenodd" d="M38.5 45.7361L6.78201 29.8771L8.57087 26.2994L40.4806 42.2542L71.0307 26.3151L72.881 29.8614L42.5 45.7124V80.0588H38.5V45.7361Z" fill="white" fill-opacity="0.75"/>
</svg>
